<svg width="22" height="24" viewBox="0 0 22 24" fill="none" xmlns="http://www.w3.org/2000/svg">
<path d="M21.4088 23.2111L19.5847 5.8405C19.5464 5.47686 19.2399 5.20073 18.8742 5.20073H15.4458V4.41906C15.4458 1.98248 13.4633 0 11.0267 0C8.58995 0 6.60747 1.98248 6.60747 4.41906V5.20073H3.17901C2.81335 5.20073 2.50683 5.47686 2.46857 5.8405L0.644473 23.2111C0.623416 23.4124 0.688784 23.6132 0.824099 23.7637C0.959597 23.9141 1.15259 23.9999 1.35492 23.9999H20.6981C20.9007 23.9999 21.0936 23.9141 21.229 23.7637C21.3646 23.6132 21.4298 23.4124 21.4088 23.2111ZM8.03606 4.41906C8.03606 2.7702 9.37767 1.42859 11.0267 1.42859C12.6756 1.42859 14.0172 2.7702 14.0172 4.41906V5.20073H8.03606V4.41906ZM2.14813 22.5714L3.82226 6.62932H6.60747V8.20347C6.60747 8.59788 6.92736 8.91777 7.32177 8.91777C7.71617 8.91777 8.03606 8.59788 8.03606 8.20347V6.62932H14.0172V8.20347C14.0172 8.59788 14.3371 8.91777 14.7315 8.91777C15.1259 8.91777 15.4458 8.59788 15.4458 8.20347V6.62932H18.231L19.9051 22.5714H2.14813Z" fill="#060608"/>
</svg>
