<svg width="24" height="24" viewBox="0 0 24 24" fill="none" xmlns="http://www.w3.org/2000/svg">
<g clip-path="url(#clip0)">
<path d="M22.4616 4.30757H1.53848C0.688594 4.30757 0 3.61898 0 2.76914C0 1.91929 0.688594 1.23065 1.53848 1.23065H22.4616C23.3114 1.23065 24 1.91925 24 2.76914C24 3.61903 23.3114 4.30757 22.4616 4.30757Z" fill="#060608"/>
<path d="M13.8462 13.5383H1.53848C0.688594 13.5383 0 12.8497 0 11.9998C0 11.15 0.688594 10.4613 1.53848 10.4613H13.8462C14.696 10.4613 15.3847 11.1499 15.3847 11.9998C15.3847 12.8497 14.696 13.5383 13.8462 13.5383Z" fill="#C7051A"/>
<path d="M22.4616 13.5385H20.0001C19.1502 13.5385 18.4616 12.8499 18.4616 12C18.4616 11.1501 19.1502 10.4615 20.0001 10.4615H22.4616C23.3115 10.4615 24.0001 11.1501 24.0001 12C24.0001 12.8499 23.3115 13.5385 22.4616 13.5385Z" fill="#C7051A"/>
<path d="M22.4616 22.7692H1.53848C0.688594 22.7692 0 22.0806 0 21.2307C0 20.3809 0.688594 19.6922 1.53848 19.6922H22.4616C23.3114 19.6922 24 20.3808 24 21.2307C24 22.0806 23.3114 22.7692 22.4616 22.7692Z" fill="#060608"/>
</g>
<defs>
<clipPath id="clip0">
<rect width="24" height="24" fill="white"/>
</clipPath>
</defs>
</svg>
